<mxfile host="app.diagrams.net" modified="2023-12-20T14:06:59.658Z" agent="Mozilla/5.0 (Windows NT 10.0; Win64; x64) AppleWebKit/537.36 (KHTML, like Gecko) Chrome/120.0.0.0 Safari/537.36" etag="J5SLuuHvXnvYcPsMOJ6H" version="22.1.11" type="device">
  <diagram name="Trang-1" id="hgEYc82Y3aUZB9XcVDhA">
    <mxGraphModel dx="364" dy="421" grid="1" gridSize="10" guides="1" tooltips="1" connect="1" arrows="1" fold="1" page="1" pageScale="1" pageWidth="827" pageHeight="1169" math="0" shadow="0">
      <root>
        <mxCell id="0" />
        <mxCell id="1" parent="0" />
        <mxCell id="_8M5vzwJL3HoEUiECT90-1" value="NhanVien" style="swimlane;fontStyle=0;childLayout=stackLayout;horizontal=1;startSize=30;horizontalStack=0;resizeParent=1;resizeParentMax=0;resizeLast=0;collapsible=1;marginBottom=0;whiteSpace=wrap;html=1;" vertex="1" parent="1">
          <mxGeometry x="340" y="220" width="140" height="120" as="geometry" />
        </mxCell>
        <mxCell id="_8M5vzwJL3HoEUiECT90-2" value="+ usernameNV: string&lt;br&gt;+ fullName: string&lt;br&gt;+ email: string&lt;br&gt;+ workday: string&lt;br&gt;+&amp;nbsp;position: string" style="text;strokeColor=none;fillColor=none;align=left;verticalAlign=middle;spacingLeft=4;spacingRight=4;overflow=hidden;points=[[0,0.5],[1,0.5]];portConstraint=eastwest;rotatable=0;whiteSpace=wrap;html=1;" vertex="1" parent="_8M5vzwJL3HoEUiECT90-1">
          <mxGeometry y="30" width="140" height="90" as="geometry" />
        </mxCell>
      </root>
    </mxGraphModel>
  </diagram>
</mxfile>
